<svg xmlns="http://www.w3.org/2000/svg" viewBox="0 0 58.61 59.97"><defs><style>.cls-1,.cls-2{fill:#fff;}.cls-1{stroke:#fff;stroke-linejoin:round;stroke-width:0.15px;}</style></defs><title>アセット 1</title><g id="レイヤー_2" data-name="レイヤー 2"><g id="E_2_" data-name="E (2)"><path class="cls-1" d="M3.54,45.14a3.54,3.54,0,0,1,1.39.27A3.13,3.13,0,0,1,6,46.18a3.55,3.55,0,0,1,.72,1.19A4.45,4.45,0,0,1,7,48.92a4.53,4.53,0,0,1-.25,1.55A3.58,3.58,0,0,1,6,51.69a3.19,3.19,0,0,1-1.09.78,3.45,3.45,0,0,1-1.4.28,3.48,3.48,0,0,1-1.4-.28A3.22,3.22,0,0,1,1,51.69a3.54,3.54,0,0,1-.71-1.21,4.55,4.55,0,0,1-.25-1.56,4.48,4.48,0,0,1,.26-1.56,3.47,3.47,0,0,1,.72-1.19,3.18,3.18,0,0,1,1.1-.76A3.53,3.53,0,0,1,3.54,45.14Zm0,7.07A3.06,3.06,0,0,0,4.7,52a2.55,2.55,0,0,0,.92-.64,2.93,2.93,0,0,0,.6-1,4.22,4.22,0,0,0,.21-1.4,4.09,4.09,0,0,0-.22-1.39,2.9,2.9,0,0,0-.6-1,2.52,2.52,0,0,0-.91-.62,3.06,3.06,0,0,0-1.15-.21,3.11,3.11,0,0,0-1.17.21,2.57,2.57,0,0,0-.92.63,2.9,2.9,0,0,0-.61,1,4.09,4.09,0,0,0-.22,1.39,4.2,4.2,0,0,0,.21,1.4,3,3,0,0,0,.6,1,2.52,2.52,0,0,0,.92.64A3.06,3.06,0,0,0,3.53,52.21Z"/><path class="cls-1" d="M14.21,50.56a1.83,1.83,0,0,1-.67,1.53,3.15,3.15,0,0,1-2,.53H8.89V45.28h2.65a2.89,2.89,0,0,1,1.69.42A1.53,1.53,0,0,1,13.82,47a2.91,2.91,0,0,1,0,.53,1.57,1.57,0,0,1-.18.51,1.43,1.43,0,0,1-.37.42,1.47,1.47,0,0,1-.6.26,2.06,2.06,0,0,1,.83.22,1.41,1.41,0,0,1,.48.43,1.49,1.49,0,0,1,.23.56A3.21,3.21,0,0,1,14.21,50.56ZM9.43,48.5h2a2.6,2.6,0,0,0,1.44-.31,1.19,1.19,0,0,0,.46-1.06,1.17,1.17,0,0,0-.43-1,2.29,2.29,0,0,0-1.37-.33H9.43Zm0,3.58h2.12q2.08,0,2.08-1.52a2,2,0,0,0-.11-.68,1,1,0,0,0-.37-.47,1.83,1.83,0,0,0-.68-.27A5.26,5.26,0,0,0,11.4,49h-2Z"/><path class="cls-1" d="M19.47,50.32a4.49,4.49,0,0,1-.12,1.12,1.93,1.93,0,0,1-.36.75,1.39,1.39,0,0,1-.6.42,2.45,2.45,0,0,1-.84.13,2,2,0,0,1-.76-.14,1.63,1.63,0,0,1-.58-.39,1.71,1.71,0,0,1-.37-.61,2.4,2.4,0,0,1-.13-.81h.54a1.64,1.64,0,0,0,.36,1.08,1.24,1.24,0,0,0,.95.35,2.21,2.21,0,0,0,.58-.07.9.9,0,0,0,.44-.27,1.33,1.33,0,0,0,.28-.56,3.76,3.76,0,0,0,.09-.93V45.28h.54Z"/><path class="cls-1" d="M27,52.61h-5.3V45.28h5.12v.54H22.27v2.71h4.29v.54H22.27v3H27Z"/><path class="cls-1" d="M34.06,47.24a1.7,1.7,0,0,0-.27-.61,2,2,0,0,0-.5-.5,2.48,2.48,0,0,0-.69-.33,2.85,2.85,0,0,0-.84-.12,3.1,3.1,0,0,0-1.16.21,2.36,2.36,0,0,0-.88.61,2.77,2.77,0,0,0-.56,1,4.56,4.56,0,0,0-.2,1.41,4.62,4.62,0,0,0,.2,1.42,2.87,2.87,0,0,0,.56,1,2.36,2.36,0,0,0,.88.63,2.94,2.94,0,0,0,1.14.21,2.7,2.7,0,0,0,1.57-.43,1.83,1.83,0,0,0,.76-1.24h.56a2.55,2.55,0,0,1-.33.93,2.4,2.4,0,0,1-.62.69,2.74,2.74,0,0,1-.86.43,3.68,3.68,0,0,1-1.06.15,3.45,3.45,0,0,1-1.4-.27,3,3,0,0,1-1.06-.77,3.43,3.43,0,0,1-.67-1.2,5,5,0,0,1-.23-1.58,4.91,4.91,0,0,1,.23-1.57,3.39,3.39,0,0,1,.67-1.19,3,3,0,0,1,1.06-.76,3.51,3.51,0,0,1,1.39-.26,3.25,3.25,0,0,1,1,.15,3,3,0,0,1,.86.43,2.67,2.67,0,0,1,.64.66,2.42,2.42,0,0,1,.36.85Z"/><path class="cls-1" d="M41.38,45.81H38.81v6.8h-.54v-6.8H35.73v-.54h5.64Z"/><path class="cls-1" d="M43.62,52.61h-.54V45.28h.54Z"/><path class="cls-1" d="M51.69,45.28l-2.87,7.34h-.69l-2.87-7.34h.6l2.63,6.67,2.63-6.67Z"/><path class="cls-1" d="M58.54,52.61h-5.3V45.28h5.12v.54H53.77v2.71h4.29v.54H53.77v3h4.76Z"/><path class="cls-2" d="M17,59.93V56.72h.18v3h1.25v.18Z"/><path class="cls-2" d="M24.66,57.15a1.65,1.65,0,1,1-1.17-.48A1.59,1.59,0,0,1,24.66,57.15Zm-1.17-.3a1.46,1.46,0,1,0,1,.43A1.41,1.41,0,0,0,23.5,56.85Z"/><path class="cls-2" d="M31.6,59.53a1.53,1.53,0,0,1-1.09.44,1.65,1.65,0,1,1,1.11-2.86l-.14.13a1.46,1.46,0,1,0-.06,2.24v-1h.18Z"/><path class="cls-2" d="M38.14,57.15A1.65,1.65,0,1,1,37,56.67,1.59,1.59,0,0,1,38.14,57.15ZM37,56.85a1.46,1.46,0,1,0,1,.43A1.41,1.41,0,0,0,37,56.85Z"/><path id="_" data-name="ﾎ" class="cls-2" d="M53.82,7.21,43.9,7.08,42.29,5.4h0l0,0L40.38,3.85h0l0,0-2-1.3,0,0h0l-2.16-1h0L33.83.67h-.06L31.46.22h0L29,0H29L26.59.14h0L24.24.51h-.05l-2.31.65h0l-.06,0-2.16,1h0L17.53,3.37l0,0h0L15.59,4.93l0,0h0L13.83,6.61l0,0,0,0L12.28,8.53h0l0,0L11,10.6h0v0L9.92,12.87v.06l-.72,2.24h0v0l-.5,2.38v.05l-.22,2.45s0,0,0,0h0l.07,2.38h0s0,0,0,0L8.86,25V44.16a.07.07,0,0,0,.14,0V42.58l4.18.5h.05a.07.07,0,0,0,0,0h0a.07.07,0,0,0,0,0l-.2-.28h0l-.07-.1H44.36L44,43a.07.07,0,0,0,0,0h0a.07.07,0,0,0,0,0h.05l4.17-.57v1.58a.07.07,0,0,0,.14,0V34.71l3.27,0h.1l1.61,0h0a.07.07,0,0,0,.07-.07h0a.07.07,0,0,0-.07-.07l-1.57,0,.13-.95h0v0l.21-1.57h0v0L52.3,31h0l.07-.53h0a.07.07,0,0,0,0,0h0l0,0h-.06l-.41.29.26-19.41.44.33h.05l0,0h0a.07.07,0,0,0,0,0h0l-.07-.6h0l-.14-1.21v0h0L52.3,8.5v0h0l-.13-1.14,1.65,0h0a.07.07,0,0,0,.07-.07h0A.07.07,0,0,0,53.82,7.21Zm-9.39,2-8.51,8.45-.32-1.28,8.12-8.12ZM36.74,38.54l-1.27.59-1.37.44,13-13-.39,1.24L46,29.26Zm9.11-8.91-.15.32-1.2,2-1.41,1.9-1.69,1.62-1.84,1.48-2,1.2-.47.22Zm-12.05,10-.52.17-1.53.28L47.63,24.25l-.23,1.26-.23.72Zm-2.29.49-.55.1-1.22.07L47.89,22.19l-.06,1-.15.82Zm-2,.19-.9.05H28l-.19,0L48,20.25l0,.59L47.9,22Zm-1.9,0-1.4-.13L47.9,18.5l0,1.55ZM26,40.23l-.37,0-1-.24L47.64,17l.24,1.29Zm-1.49-.31-1.13-.28-.19-.07,24.09-24,.16.57.13.74Zm-1.47-.4-1.13-.4,8.11-8.18h0l1.3-.51,0,0,0,0,1.15-.79,0,0h0l1.08-1.08h0l.05-.06L34.7,27v0l0,0,.51-1.13L46.92,14.14l.35,1.25ZM34.39,13.77,34,13.12l0,0h0l-.21-.24,1.11-1.11,0,0,.42.63.09.43Zm1-.8,0,.09-.14.7-.35.63-.1.08-.36-.57Zm-1.76-.25-.71-.81h0l0,0,.79-.79.62.17.43.38Zm-.87-.94-.51-.38.58-.29.67-.07Zm-.46.73,1,1.09.83,1.31h0l-.49.15-.7-.07-.7-.28-.56-.56-.28-.69v-.77l.28-.69Zm-.77-.57h0l-.29.72v.85l.29.72h0l.58.58h0l.72.29h0l.72.07h0l.52-.16.56,1.38.42,1.68.21,1.75v1.82l-.11.67-3.63-.49h-.06l0,0h0a.07.07,0,0,0,0,0l.29.47H25.46l.35-.46a.07.07,0,0,0,0,0h0a.07.07,0,0,0,0,0h-.06l-3.66.5-.15-1.24L22,19.31l.28-1.68L22.76,16l.69-1.45.89-1.24,1-1,1.08-.67,1.2-.47L28.83,11l1.21.2,1.2.47.3.23ZM25.81,23l-.35-.46h6.36l-.29.47a.07.07,0,0,0,0,0h0l0,0h.06l3.58-.49-.12.76L34.65,25,34,26.56l-.82,1.31-1,1L31,29.63l-1.2.47-1.22.14h-.29L27.12,30,26,29.43l-1.08-.81-1-1.17-.82-1.31-.55-1.59-.42-1.69,0-.2,3.63.49h.05a.07.07,0,0,0,0,0h0A.07.07,0,0,0,25.81,23ZM22,15.61v0l0,0-.5,1.73v.05l-.05.3L10.84,28.29l-.47-1.13L22,15.53Zm-.75,6.82h-.7l.62-.62Zm-.15-1.3a.41.41,0,0,0,0,.05l.05.44-.81.81H18.77l2.33-2.33,0,1v0h0ZM21.33,18l-.2,1.18s0,0,0,0v0l0,.64-2.54,2.55H17.23a.07.07,0,0,0,0,.14h1.18l-7,7-.15-.27-.37-.88Zm-2.71,4.57h1.53L12,30.71l-.54-1Zm1.74,0h.86l0,.41v0s0,0,0,0l0,.17-8.6,8.6-.33-.45-.29-.53Zm1,.8,0,.19v.67a.07.07,0,1,0,.14,0v-.09l.13.51L13.5,32.85l-.68-.92Zm.36,1.44L22.15,26l-7.83,7.83-.5-.56L13.59,33Zm.47,1.34.11.32,0,0,0,.06.4.64-7.6,7.6L14.41,34Zm.64,1.17.38.61,0,0v0l.24.29-7.37,7.37-.75-.6-.11-.13Zm.75,1.06.68.82h0l0,0-7.16,7.22-.92-.75Zm.84,1,.91.68L18.17,37.2l-.9-.63Zm1,.77,0,0,0,0,0,0,1,.46L19.3,38l-.18-.09-.82-.58Zm1.22.59.12.06.09,0,1.06.24L20.48,38.5l-1-.49Zm1.44.36.07,0h.5L29.82,31l-8,8.09-.58-.21-.6-.28Zm7.3-5.63,0-.08,0-.06h0l.3-1.16v.11a.07.07,0,1,0,.14,0v-.69l.06-.35L46.42,12.84l.42,1,0,.13ZM36,23l.19-1.18a.46.46,0,0,0,0-.07h0v-.54l9.66-9.59.05.09.43,1Zm.19-2V19.84h0a.43.43,0,0,0,0-.05l0-.38,9-9,.62,1.05Zm-.07-1.74L36,18v-.05l0-.11,8.56-8.49.21.29.38.65ZM43.31,7.71l.32.43-8.08,8.08h0v-.06l-.42-1,7.78-7.85Zm-.52-.54L35.05,15l-.16-.39.13-.1h0l0,0,.36-.65h0l.14-.72h0l0-.2L42,6.35ZM41.69,6l.22.23-6.42,6.42-.07-.35h0v0L35,11.65h0l0,0L41.05,5.5Zm-.75-.61-6.11,6.11-.45-.39h0L33.79,11,40.05,4.7Zm-1.09-.88.09.07-6.31,6.31-.07,0h0l-.72.07h0l-.65.33-.28-.21L39,4Zm-1-.64L31.74,11l0,0h0l-.08,0-1-.39,7.27-7.27ZM37.74,3.2l-7.28,7.28-.16-.06-.09,0-1.09-.18,7.52-7.52Zm-2-.93.75.35L29,10.18h-.13l-1.3.07h0l-.12,0-.23.09,8.17-8.23Zm-.57-.2-8.35,8.42-.74.29h0l-.06,0-1.15.72-.06.05h0l-1.08,1.08h0l0,0L22.73,14h0l0,.06-.5,1L10.32,27,10,25.76,34.06,1.67ZM33.57,1.5l.34.12-24,24-.21-.73-.09-.64,23-22.91Zm-2.26-.42,1.12.21L9.6,24.05l-.2-1.33L31.07,1.06Zm-.43,0L9.38,22.54v-.07l0-1.54L29.42.91ZM11.77,11l1.2-2,1.48-1.83,1.7-1.63L18,4.11l1.81-1-8.12,8.12Zm-1.06,2.19.77-1.59L20.21,2.9,22.15,2l.69-.2L10.34,14.36ZM10,15.41l.24-.74L23.12,1.72l1.27-.36.89-.14L9.71,16.8Zm-.49,2.33.14-.68L25.53,1.18,26.66,1l.61,0L9.41,18.91Zm-.12,1.39L27.49,1,29,.87l.24,0L9.32,20.73l0-.59ZM48.26,42.41l-4.17-.57H44a.07.07,0,0,0,0,0h0a.07.07,0,0,0,0,0l.35.46H13l.16-.25h0l.13-.21a.07.07,0,0,0,0,0h0a.07.07,0,0,0,0,0h-.06L9,42.41V25.54l.52,1.85h0v0l.94,2.24v0l1.15,2.09,0,0v0l1.44,1.95,0,0h0l1.59,1.8,0,0,0,0,1.88,1.52h0l1.95,1.37,0,0,0,0,2.16,1h0l2.24.79h0L25.5,41h.07l2.38.22h.71L31,41.13h.05l2.38-.43h.06L35.77,40h.05l2.16-1h0l2-1.23,0,0h0L42,36.12l0,0h0l1.52-1.46,4.74.07Zm0-7.85-4.59-.06.06-.06h0l0,0,1.44-1.95v0l1.23-2v0l1-2.24v0h0l.72-2.31v8.82Zm3.39-1.1v0h0Zm-.22-21.93h0v0a.07.07,0,0,0,0,0h0l0,0h.06l.41-.35-.26,19.4-.44-.33H51.2l0,0h0a.07.07,0,0,0,0,0h0l.49,4.22-3.24,0v-9.7l.28-1.55s0,0,0,0h0l.14-2.38v0h0l-.07-2.45v0a.44.44,0,0,0,0,0l-.43-2.38v0h0l-.65-2.31v-.05l-.94-2.24,0,0v0L45.46,9.16l0,0h0L44,7.22l8,.11Zm.5-2.65v0h0Zm-.22,1.6h0Zm-.22,21.74h0Z"/></g></g></svg>